# xmcd
#
# Track frame offsets:
#	150
#	15912
#	31462
#	44024
#	65349
#	83714
#	103569
#	121589
#	144308
#	172514
#	207538
#
# Disc length: 3087 seconds
#
# Revision: 0
# Processed by: cddbd v1.4PL0 Copyright (c) Steve Scherf et al.
# Submitted via: audiograbber 1.81.01
#
DISCID=820c0d0b
DTITLE=Frank Ace Blues Band - Get On Line, Baby
DYEAR=2001
DGENRE=Blues
TTITLE0=get on line, baby
TTITLE1=be there for you
TTITLE2=i've got love (i ain't got no money)
TTITLE3=i gotta wake up
TTITLE4=turn your love around
TTITLE5=j.b. red
TTITLE6=bury the bone
TTITLE7=3 o'clock blues
TTITLE8=sick and tired
TTITLE9=be there for you - bonus track
TTITLE10=get on line, baby - bonus track
EXTD=
EXTT0=
EXTT1=
EXTT2=
EXTT3=
EXTT4=
EXTT5=
EXTT6=
EXTT7=
EXTT8=
EXTT9=
EXTT10=
PLAYORDER=
